<?xml version="1.0" standalone="no"?>
<!DOCTYPE svg PUBLIC "-//W3C//DTD SVG 20010904//EN"
 "http://www.w3.org/TR/2001/REC-SVG-20010904/DTD/svg10.dtd">
<svg version="1.0" xmlns="http://www.w3.org/2000/svg"
 width="260.000000pt" height="280.000000pt" viewBox="0 0 260.000000 280.000000"
 preserveAspectRatio="xMidYMid meet">

<g transform="translate(0.000000,280.000000) scale(0.100000,-0.100000)"
fill="#000000" stroke="none">
<path d="M670 1925 c0 -8 7 -15 15 -15 8 0 15 7 15 15 0 8 -7 15 -15 15 -8 0
-15 -7 -15 -15z"/>
<path d="M1905 1931 c-7 -12 12 -24 25 -16 11 7 4 25 -10 25 -5 0 -11 -4 -15
-9z"/>
<path d="M1952 1911 c-14 -24 -44 -28 -60 -8 -22 27 -76 8 -127 -44 l-48 -49
-104 0 c-96 0 -103 -1 -103 -20 0 -18 7 -20 82 -20 60 0 86 4 99 16 27 24 61
9 57 -24 -2 -20 -10 -28 -27 -30 -13 -2 -28 1 -34 7 -6 6 -48 11 -94 11 -77 0
-83 -1 -83 -21 0 -20 4 -20 178 -18 163 1 210 8 197 29 -3 5 4 6 15 3 12 -3
30 2 43 13 22 19 22 19 5 -2 -13 -14 -15 -23 -7 -31 18 -18 1 -53 -26 -53 -13
0 -27 5 -30 10 -4 6 -78 10 -191 10 -177 0 -184 -1 -184 -20 0 -19 7 -20 153
-20 l153 0 29 -30 c33 -35 87 -41 117 -13 23 21 51 8 56 -25 5 -30 -34 -49
-57 -28 -10 9 -35 16 -57 16 -32 0 -46 6 -69 30 l-29 30 -129 0 -130 0 26 -20
c20 -16 40 -20 99 -20 69 0 76 -2 103 -30 32 -33 50 -38 59 -14 7 19 45 15 59
-7 6 -9 7 -24 4 -33 -7 -17 -52 -22 -62 -6 -3 6 -14 10 -24 10 -9 0 -30 14
-46 30 -27 28 -34 30 -102 30 -66 0 -73 -2 -73 -20 0 -25 34 -27 57 -5 28 28
74 -2 60 -39 -7 -17 -52 -22 -62 -6 -3 6 -17 10 -31 10 -17 0 -24 -5 -24 -20
0 -19 7 -20 176 -20 153 0 178 2 189 16 8 12 20 15 39 10 22 -5 27 -11 24 -34
-2 -20 -9 -28 -27 -30 -13 -2 -28 1 -34 7 -7 7 -74 11 -189 11 -171 0 -178 -1
-178 -20 0 -18 7 -20 68 -20 60 0 71 -3 92 -25 20 -22 32 -25 86 -25 35 0 66
5 69 10 11 18 53 11 60 -10 13 -41 -38 -67 -66 -34 -9 11 -28 15 -71 13 -51
-2 -62 1 -86 24 -24 23 -37 27 -90 27 -55 0 -62 -2 -62 -20 0 -25 45 -28 54
-4 7 19 45 15 59 -7 6 -9 7 -24 4 -33 -7 -17 -52 -22 -62 -6 -3 6 -17 10 -31
10 -17 0 -24 -5 -24 -20 0 -20 5 -21 135 -18 134 2 135 2 163 -25 30 -29 51
-34 69 -16 6 6 21 9 34 7 19 -2 24 -9 24 -33 0 -25 -4 -30 -28 -33 -17 -2 -29
2 -33 12 -3 8 -14 13 -24 11 -10 -2 -30 9 -46 26 l-28 29 -133 0 -133 0 0 -33
c0 -65 -7 -67 -284 -67 -151 0 -255 4 -267 10 -14 8 -19 21 -19 50 l0 40 -131
0 -131 0 -35 -31 c-19 -17 -41 -28 -48 -25 -8 3 -19 -2 -25 -10 -7 -8 -19 -14
-27 -14 -22 0 -12 -11 123 -135 101 -93 128 -113 138 -103 17 18 26 57 15 64
-6 3 -5 12 2 21 11 12 10 14 -2 11 -8 -1 -14 1 -14 7 0 5 5 10 12 11 14 2 27
-31 18 -46 -9 -14 8 -13 23 2 6 6 21 13 33 15 19 3 20 1 8 -14 -13 -17 -12
-17 6 -2 14 12 43 18 95 19 99 4 94 5 134 -32 87 -81 100 -88 165 -88 47 0 61
3 61 15 0 12 29 15 182 17 174 3 183 4 186 23 9 44 36 55 149 62 98 5 112 4
151 -16 23 -12 42 -27 42 -33 0 -19 16 2 45 60 l27 54 -29 26 c-50 48 -57 60
-41 76 12 12 19 12 48 -1 19 -7 37 -19 41 -24 3 -6 11 9 17 32 6 24 9 45 6 48
-2 2 -4 -2 -4 -9 0 -15 -46 24 -61 52 -8 16 -7 17 16 8 13 -5 24 -6 24 -2 -1
4 -1 13 0 21 2 20 29 -5 34 -32 4 -20 4 -19 6 3 0 15 -7 30 -19 38 -11 7 -20
18 -20 24 0 7 -11 24 -25 38 -13 14 -26 35 -28 47 -3 22 -34 60 -125 155 -36
38 -43 50 -34 61 10 12 8 14 -13 12 -32 -4 -52 27 -30 45 11 9 18 10 28 1 8
-6 18 -7 22 -3 5 4 5 1 1 -6 -4 -7 -11 -10 -16 -7 -4 3 -13 -2 -19 -9 -10 -11
-9 -14 3 -12 9 1 19 5 22 9 12 11 20 8 48 -18 29 -27 56 -26 106 2 24 14 24
14 2 9 -18 -3 -21 -1 -13 8 8 10 -16 41 -97 125 -101 107 -108 112 -120 92z
m-22 -125 c0 -2 -8 -10 -17 -17 -16 -13 -17 -12 -4 4 13 16 21 21 21 13z m44
-57 c-3 -5 -10 -7 -15 -3 -5 3 -7 10 -3 15 3 5 10 7 15 3 5 -3 7 -10 3 -15z
m273 -521 c-3 -8 -6 -5 -6 6 -1 11 2 17 5 13 3 -3 4 -12 1 -19z m-43 -123 c-4
-8 -10 -12 -15 -9 -11 6 -2 24 11 24 5 0 7 -7 4 -15z"/>
<path d="M716 1903 c-3 -6 -13 -13 -24 -15 -15 -2 2 -23 74 -90 l94 -88 115 0
c108 0 115 1 115 20 0 18 -7 20 -84 20 -47 0 -88 -4 -91 -10 -10 -16 -55 -11
-62 6 -3 9 -2 24 4 33 14 22 52 26 59 7 5 -13 23 -16 89 -16 74 0 83 2 88 20
5 19 0 20 -101 20 l-106 0 -54 53 c-40 39 -60 52 -82 52 -16 0 -32 -5 -34 -12z"/>
<path d="M1238 1872 c-42 -26 -58 -69 -58 -161 l0 -81 120 0 120 0 0 96 c0 96
0 96 -34 130 -28 28 -41 34 -77 34 -24 0 -56 -8 -71 -18z"/>
<path d="M1497 1850 c3 -11 12 -20 21 -20 13 0 12 3 -3 20 -10 11 -19 20 -21
20 -1 0 0 -9 3 -20z"/>
<path d="M875 1769 c-10 -15 1 -23 20 -15 9 3 13 10 10 16 -8 13 -22 13 -30
-1z"/>
<path d="M1707 1773 c-12 -11 -8 -23 8 -23 8 0 15 7 15 15 0 16 -12 20 -23 8z"/>
<path d="M686 1713 c-11 -11 -6 -23 9 -23 8 0 15 4 15 9 0 13 -16 22 -24 14z"/>
<path d="M1895 1710 c-3 -6 1 -13 10 -16 19 -8 30 0 20 15 -8 14 -22 14 -30 1z"/>
<path d="M713 1676 c-29 -14 -29 -17 2 -46 l25 -23 23 21 c22 21 33 22 175 22
145 0 152 1 152 20 0 19 -6 20 -177 19 -108 -1 -187 -6 -200 -13z"/>
<path d="M765 1600 c-22 -23 -38 -30 -67 -30 -21 0 -46 -7 -58 -17 -20 -17
-19 -18 12 -50 l32 -33 168 0 c161 0 168 1 168 20 0 16 -7 20 -30 20 -16 0
-30 -4 -30 -10 0 -17 -48 -11 -59 7 -21 39 31 72 59 38 19 -23 60 -19 60 5 0
18 -7 20 -78 20 -74 0 -80 -2 -107 -30 -16 -16 -37 -30 -47 -30 -10 0 -18 -4
-18 -10 0 -15 -46 -12 -59 4 -9 11 -10 20 -1 35 13 25 37 27 62 4 17 -16 20
-15 51 15 31 31 37 32 113 32 67 0 82 3 97 20 17 20 16 20 -111 20 l-128 0
-29 -30z"/>
<path d="M607 1594 c-13 -13 -7 -24 14 -24 11 0 19 5 17 12 -5 14 -22 21 -31
12z"/>
<path d="M1975 1590 c-4 -6 -3 -16 3 -22 6 -6 12 -6 17 2 4 6 3 16 -3 22 -6 6
-12 6 -17 -2z"/>
<path d="M730 1526 c0 -9 7 -16 16 -16 17 0 14 22 -4 28 -7 2 -12 -3 -12 -12z"/>
<path d="M920 1526 c0 -9 7 -16 16 -16 17 0 14 22 -4 28 -7 2 -12 -3 -12 -12z"/>
<path d="M1272 1524 c-25 -17 -29 -50 -7 -74 14 -16 13 -44 -10 -172 -4 -28
-4 -28 47 -28 l51 0 -6 38 c-17 102 -19 150 -8 156 19 12 13 74 -8 86 -26 13
-33 13 -59 -6z"/>
<path d="M1660 1526 c0 -9 7 -16 16 -16 17 0 14 22 -4 28 -7 2 -12 -3 -12 -12z"/>
<path d="M1850 1526 c0 -9 7 -16 16 -16 17 0 14 22 -4 28 -7 2 -12 -3 -12 -12z"/>
<path d="M605 1471 c-7 -12 12 -24 25 -16 11 7 4 25 -10 25 -5 0 -11 -4 -15
-9z"/>
<path d="M1970 1465 c0 -8 7 -15 15 -15 8 0 15 7 15 15 0 8 -7 15 -15 15 -8 0
-15 -7 -15 -15z"/>
<path d="M633 1436 l-23 -13 23 -21 c13 -12 33 -22 45 -22 11 0 24 -4 27 -10
3 -5 34 -10 69 -10 54 0 66 3 86 25 21 22 32 25 92 25 61 0 68 2 68 20 0 19
-6 20 -182 19 -125 -1 -190 -5 -205 -13z"/>
<path d="M870 1365 c-21 -22 -32 -25 -92 -25 -38 0 -68 -4 -68 -10 0 -5 -11
-12 -25 -16 l-25 -6 27 -24 c24 -21 29 -22 43 -9 12 11 50 16 151 17 118 3
134 5 137 21 3 13 -3 17 -27 17 -17 0 -31 -4 -31 -10 0 -15 -46 -12 -59 4 -9
11 -10 20 -1 35 13 25 42 27 60 6 17 -20 54 -15 58 8 3 15 -5 17 -61 17 -55 0
-67 -3 -87 -25z"/>
<path d="M660 1345 c0 -8 7 -15 15 -15 8 0 15 7 15 15 0 8 -7 15 -15 15 -8 0
-15 -7 -15 -15z"/>
<path d="M920 1346 c0 -9 7 -16 16 -16 17 0 14 22 -4 28 -7 2 -12 -3 -12 -12z"/>
<path d="M1660 1346 c0 -9 7 -16 16 -16 17 0 14 22 -4 28 -7 2 -12 -3 -12 -12z"/>
<path d="M1915 1351 c-3 -5 -1 -12 5 -16 12 -7 30 2 30 16 0 12 -27 12 -35 0z"/>
<path d="M605 1231 c-7 -12 12 -24 25 -16 11 7 4 25 -10 25 -5 0 -11 -4 -15
-9z"/>
<path d="M1970 1225 c0 -8 7 -15 15 -15 8 0 15 7 15 15 0 8 -7 15 -15 15 -8 0
-15 -7 -15 -15z"/>
<path d="M923 975 c0 -8 4 -12 9 -9 5 3 6 10 3 15 -9 13 -12 11 -12 -6z"/>
<path d="M603 95 c0 -27 2 -38 4 -22 2 15 8 27 13 27 5 0 11 -12 13 -27 4 -26
4 -26 6 5 1 22 -4 32 -13 32 -8 0 -17 8 -19 18 -3 9 -5 -5 -4 -33z"/>
<path d="M1102 95 c0 -27 2 -43 5 -35 3 8 13 24 22 35 15 18 15 19 -1 7 -14
-12 -17 -10 -21 15 -2 16 -4 6 -5 -22z"/>
<path d="M719 119 c-8 -20 4 -62 19 -65 7 -1 8 0 2 3 -15 7 -12 43 4 43 8 0
16 -10 18 -22 2 -12 9 -23 16 -24 7 -1 8 0 2 3 -12 6 -13 40 -1 45 5 2 3 9 -5
16 -8 7 -14 8 -14 2 0 -14 -27 -13 -32 2 -3 8 -6 7 -9 -3z"/>
<path d="M949 118 c-2 -25 3 -53 11 -62 5 -5 6 1 3 14 -3 12 -1 25 4 29 7 4 6
11 -3 19 -11 10 -14 10 -15 0z"/>
<path d="M1500 125 c-1 -5 -1 -21 0 -34 1 -13 -4 -28 -12 -32 -9 -6 -3 -9 17
-9 17 0 25 4 18 8 -6 4 -13 23 -16 42 -2 19 -5 31 -7 25z"/>
<path d="M1547 123 c-12 -12 -7 -33 7 -33 26 0 28 -20 4 -29 -15 -7 -17 -10
-7 -10 9 -1 22 6 30 15 11 14 13 14 21 0 12 -21 34 -20 43 2 6 16 7 16 16 -1
22 -38 59 -3 44 43 -8 25 -31 26 -44 3 -9 -17 -10 -17 -16 0 -10 25 -32 21
-49 -10 -8 -16 -15 -22 -16 -15 0 6 -7 12 -15 12 -21 0 -19 18 3 23 14 4 14 5
1 6 -9 0 -19 -2 -22 -6z m88 -33 c0 -27 -20 -38 -28 -15 -8 20 3 47 17 42 6
-2 11 -14 11 -27z m60 0 c0 -27 -20 -38 -28 -15 -8 20 3 47 17 42 6 -2 11 -14
11 -27z"/>
<path d="M1727 123 c-3 -5 -4 -21 -3 -38 1 -23 6 -30 21 -30 11 0 20 6 19 13
-1 6 -2 23 -2 37 -2 23 -25 35 -35 18z m23 -13 c0 -5 -4 -10 -10 -10 -5 0 -10
5 -10 10 0 6 5 10 10 10 6 0 10 -4 10 -10z m2 -35 c0 -5 -5 -11 -11 -13 -6 -2
-11 4 -11 13 0 9 5 15 11 13 6 -2 11 -8 11 -13z"/>
<path d="M1790 106 c-15 -29 -8 -56 15 -56 23 0 31 31 12 45 -12 9 -14 14 -5
23 7 7 8 12 2 12 -6 0 -16 -11 -24 -24z m22 -31 c0 -5 -5 -11 -11 -13 -6 -2
-11 4 -11 13 0 9 5 15 11 13 6 -2 11 -8 11 -13z"/>
<path d="M1857 123 c22 -4 22 -6 8 -33 -22 -42 -17 -51 5 -10 25 46 25 50 -7
49 -24 -2 -25 -2 -6 -6z"/>
<path d="M1907 123 c-12 -12 -7 -33 7 -33 26 0 28 -20 4 -29 -16 -7 -18 -10
-6 -10 9 -1 20 4 23 9 9 14 55 12 55 -2 0 -10 2 -10 8 0 5 7 6 27 4 44 l-5 32
-25 -30 c-16 -18 -27 -24 -30 -16 -2 6 -10 12 -18 12 -20 0 -17 18 4 23 14 4
14 5 1 6 -9 0 -19 -2 -22 -6z m79 -40 c-10 -10 -19 5 -10 18 6 11 8 11 12 0 2
-7 1 -15 -2 -18z"/>
<path d="M2025 120 c-3 -5 0 -7 8 -4 24 9 28 -12 7 -31 -27 -25 -25 -35 8 -34
21 0 23 2 9 7 -15 7 -16 10 -3 27 7 10 12 25 9 32 -6 15 -29 17 -38 3z"/>
<path d="M550 93 c0 -10 4 -14 8 -8 4 6 11 13 16 18 5 4 2 7 -7 7 -10 0 -17
-8 -17 -17z"/>
<path d="M661 83 c-1 -27 3 -33 19 -33 16 0 20 6 19 33 -2 30 -2 30 -6 5 -6
-36 -20 -36 -26 0 -4 25 -4 25 -6 -5z"/>
<path d="M807 104 c-13 -13 -7 -24 14 -24 11 0 19 5 17 12 -5 14 -22 21 -31
12z"/>
<path d="M861 78 c2 -28 2 -29 6 -8 3 14 10 28 17 32 7 5 5 8 -6 8 -14 0 -18
-8 -17 -32z"/>
<path d="M900 93 c0 -10 4 -14 8 -8 4 6 11 13 16 18 5 4 2 7 -7 7 -10 0 -17
-8 -17 -17z"/>
<path d="M997 103 c-11 -10 -8 -41 4 -49 16 -9 41 20 33 39 -6 17 -25 22 -37
10z m28 -23 c0 -7 -6 -15 -12 -17 -8 -3 -13 4 -13 17 0 13 5 20 13 18 6 -3 12
-11 12 -18z"/>
<path d="M1054 95 c-8 -20 2 -45 18 -44 10 0 10 2 1 6 -7 2 -13 13 -13 23 0
10 6 21 13 23 9 4 9 6 -1 6 -7 1 -15 -6 -18 -14z"/>
<path d="M1194 95 c-8 -20 2 -45 18 -44 10 0 10 2 1 6 -7 2 -13 13 -13 23 0
10 6 21 13 23 9 4 9 6 -1 6 -7 1 -15 -6 -18 -14z"/>
<path d="M1244 95 c-8 -21 2 -45 20 -45 7 0 16 7 20 15 8 21 -3 45 -20 45 -8
0 -17 -7 -20 -15z m31 -15 c0 -7 -6 -15 -12 -17 -8 -3 -13 4 -13 17 0 13 5 20
13 18 6 -3 12 -11 12 -18z"/>
<path d="M1301 77 c2 -31 2 -31 6 -4 2 15 8 27 13 27 5 0 11 -12 13 -27 l4
-28 2 28 c0 15 5 27 10 27 5 0 12 -12 14 -27 4 -27 4 -27 6 4 1 29 -1 31 -34
31 -33 0 -35 -2 -34 -31z"/>
<path d="M562 65 c-11 -12 -10 -15 3 -15 8 0 15 7 15 15 0 18 -2 18 -18 0z"/>
<path d="M912 65 c-11 -12 -10 -15 3 -15 8 0 15 7 15 15 0 18 -2 18 -18 0z"/>
<path d="M1120 71 c0 -5 5 -13 10 -16 6 -3 10 -2 10 4 0 5 -4 13 -10 16 -5 3
-10 2 -10 -4z"/>
<path d="M808 58 c5 -5 16 -8 23 -6 8 3 3 7 -10 11 -17 4 -21 3 -13 -5z"/>
</g>
</svg>
